<?xml version="1.0" encoding="utf-8"?>
<!-- Generator: Adobe Illustrator 16.0.0, SVG Export Plug-In . SVG Version: 6.00 Build 0)  -->
<!DOCTYPE svg PUBLIC "-//W3C//DTD SVG 1.1//EN" "http://www.w3.org/Graphics/SVG/1.1/DTD/svg11.dtd">
<svg version="1.1" id="svg" xmlns="http://www.w3.org/2000/svg" xmlns:xlink="http://www.w3.org/1999/xlink" x="0px" y="0px"
	 width="99px" height="111px" viewBox="0 0 99 111" enable-background="new 0 0 99 111" xml:space="preserve">
<g id="svgg">
	<path id="path0" fill="#FBFBFB" d="M41.72,33.94c-2.124,0.616-2.217,3.062-0.143,3.792c0.496,0.174,1.103,0.163,1.948-0.033
		c1.991-0.463,2.661-0.608,2.965-0.646l0.333-0.043l0.119,0.593c0.067,0.327,0.229,1.061,0.363,1.629
		c0.133,0.57,0.228,1.062,0.21,1.093c-0.02,0.031-0.39,0.056-0.824,0.056h-0.789v0.38v0.38h-0.478c-0.774,0-0.726-0.106-0.726,1.575
		c0,1.555,0.008,1.595,0.334,1.595c0.479,0-0.251,1.31-0.808,1.449c-0.714,0.182-4.21,0.277-4.735,0.132
		c-0.169-0.048-0.286-0.141-0.414-0.333l-0.181-0.267l-1.122-0.017l-1.121-0.018v0.351v0.35h-4.216c-3.774,0-4.214,0.011-4.214,0.1
		c0,0.058-0.031,0.08-0.073,0.052c-0.045-0.027-0.057-0.017-0.03,0.025c0.024,0.04-0.055,0.379-0.179,0.755
		c-0.463,1.426-0.794,2.908-0.919,4.138c-0.038,0.366-0.082,0.771-0.094,0.903l-0.024,0.237l4.859,0.017l4.856,0.017l0.02,0.332
		l0.018,0.333h1.104h1.106l0.162-0.258c0.276-0.438,0.369-0.456,2.403-0.421c2.189,0.039,2.792,0.12,4.487,0.61
		c2.959,0.853,4.457,0.807,6.954-0.216c1.443-0.592,1.861-0.727,2.39-0.77c2.094-0.18,3.845,1.848,3.826,4.43
		c-0.006,0.903,0.081,1.189,0.356,1.188c0.368-0.003,0.462-0.199,0.462-0.979v-0.61l0.998,0.017l0.999,0.018l0.032,2.224
		c0.032,2.409,0.038,2.435,0.382,2.435c0.341,0,0.345-0.025,0.379-2.435l0.032-2.224l0.298-0.019l0.296-0.019l0.02,1.307
		c0.02,1.389,0.061,1.55,0.399,1.55c0.336,0,0.38-0.161,0.398-1.55l0.019-1.307l0.298,0.019l0.295,0.019l0.033,1.591
		c0.034,1.728,0.052,1.8,0.386,1.8c0.366,0,0.376-0.06,0.376-2.447c0-3.361-0.213-4.763-0.935-6.205
		c-1.234-2.459-4.189-4.126-7.684-4.336c-1.736-0.105-2.345-0.274-2.878-0.797c-0.421-0.415-0.644-1.107-0.356-1.107
		c0.347,0,0.382-0.145,0.382-1.588c0-1.674,0.044-1.579-0.764-1.579H52.68v-0.413v-0.412h-0.664c-0.527,0-0.666-0.017-0.666-0.088
		c0-0.049,0.146-0.74,0.32-1.537c0.176-0.797,0.332-1.514,0.353-1.596c0.041-0.185,0.001-0.19,2.277,0.317
		c1.274,0.285,1.832,0.38,2.187,0.378c2.055-0.009,3.076-2.104,1.649-3.386c-0.79-0.708-1.427-0.755-3.742-0.277
		c-2.257,0.47-2.304,0.474-2.668,0.269c-1.059-0.592-3.353-0.609-4.532-0.028l-0.414,0.205l-0.575-0.078
		c-0.316-0.042-1.135-0.206-1.816-0.367C43.02,33.869,42.222,33.796,41.72,33.94 M60.669,56.29
		c-0.187,0.188-0.194,2.708-0.011,2.875c0.165,0.149,0.427,0.132,0.546-0.037c0.189-0.269,0.142-2.608-0.057-2.809
		C60.959,56.131,60.837,56.123,60.669,56.29 M59.266,58.882l-0.151,0.122v2.501c0,2.743,0.004,2.766,0.386,2.766
		c0.401,0,0.415-0.085,0.393-2.801l-0.016-2.468l-0.15-0.12C59.539,58.731,59.454,58.731,59.266,58.882 M63.465,60.132
		c-0.123,0.156-0.13,0.251-0.13,1.35c0.001,1.389,0.029,1.497,0.41,1.497c0.389,0,0.417-0.104,0.396-1.532
		c-0.016-1.09-0.028-1.227-0.137-1.346C63.837,59.92,63.621,59.931,63.465,60.132 M60.669,60.725
		c-0.122,0.125-0.125,0.214-0.125,3.445v3.316l0.147,0.138c0.187,0.177,0.267,0.174,0.459-0.017l0.154-0.154v-3.26
		c0-3.198-0.003-3.26-0.131-3.424C61.017,60.567,60.843,60.554,60.669,60.725 M64.917,60.725c-0.12,0.122-0.126,0.214-0.126,1.903
		c0,1.919,0.019,2.026,0.368,2.026c0.372,0,0.391-0.104,0.391-2.027c0-1.927-0.017-2.027-0.38-2.027
		C65.098,60.602,64.986,60.657,64.917,60.725 M62.038,62.008c-0.081,0.113-0.1,0.33-0.1,1.063c0,1.037,0.052,1.204,0.381,1.204
		c0.328,0,0.379-0.164,0.379-1.204c0-1.038-0.051-1.204-0.379-1.204C62.201,61.867,62.102,61.918,62.038,62.008 M63.465,64.506
		c-0.323,0.409-0.119,1.546,0.273,1.546c0.292,0,0.387-0.212,0.387-0.858C64.123,64.387,63.813,64.063,63.465,64.506 M59.294,65.655
		c-0.202,0.131-0.325,2.995-0.15,3.461c0.125,0.333,0.507,0.352,0.671,0.035c0.118-0.23,0.137-3.089,0.021-3.31
		C59.718,65.615,59.486,65.534,59.294,65.655 M62.038,65.749c-0.085,0.121-0.1,0.476-0.1,2.599v2.461l0.381-0.27l0.379-0.267v-2.191
		c0-2.423-0.007-2.474-0.379-2.474C62.201,65.605,62.102,65.656,62.038,65.749 M64.951,66.067l-0.165,0.142l0.018,1.132l0.016,1.129
		l0.365-0.352l0.364-0.351v-0.79c0-0.778-0.004-0.793-0.166-0.921C65.174,65.892,65.15,65.892,64.951,66.067 M63.513,67.438
		c-0.147,0.119-0.151,0.154-0.17,1.218l-0.019,1.094l0.288-0.236c0.173-0.143,0.323-0.22,0.369-0.191
		c0.044,0.024,0.056,0.022,0.03-0.008c-0.024-0.028-0.002-0.102,0.053-0.163c0.18-0.197,0.106-1.553-0.091-1.713
		C63.786,67.287,63.701,67.287,63.513,67.438 M60.669,69.156c-0.119,0.121-0.21,2.472-0.092,2.472c0.018,0,0.146-0.073,0.281-0.163
		c0.142-0.095,0.282-0.146,0.327-0.118c0.046,0.026,0.058,0.019,0.033-0.021c-0.024-0.038-0.016-0.086,0.021-0.109
		c0.155-0.097,0.079-1.862-0.091-2.03C60.959,68.997,60.837,68.989,60.669,69.156 M59.266,70.989
		c-0.135,0.111-0.151,0.18-0.171,0.761c-0.024,0.727-0.039,0.714,0.47,0.463l0.355-0.173l-0.021-0.466
		C59.866,70.939,59.615,70.707,59.266,70.989"/>
	<path id="path1" fill="#2494D4" d="M49.14,11.231c-0.258,0.109-0.477,0.474-0.549,0.917c-0.12,0.768-0.849,2.72-1.668,4.477
		c-0.107,0.233-0.196,0.436-0.196,0.453c0,0.067-0.92,1.687-1.246,2.196c-0.191,0.298-0.482,0.763-0.645,1.033
		c-0.485,0.804-2.74,3.904-3.242,4.453c-0.095,0.105-0.269,0.332-0.384,0.508c-0.226,0.34-0.717,0.972-1.233,1.585
		c-0.368,0.438-0.654,0.813-0.813,1.062c-0.06,0.099-0.288,0.396-0.505,0.666c-0.403,0.5-2.469,3.333-2.929,4.018
		c-0.139,0.205-0.539,0.781-0.887,1.275c-0.634,0.901-0.914,1.319-1.566,2.327c-0.19,0.296-0.566,0.874-0.833,1.282
		c-0.266,0.407-0.601,0.964-0.746,1.236c-0.145,0.271-0.347,0.619-0.45,0.772c-0.557,0.838-2.166,4.053-2.667,5.329
		c-0.087,0.226-0.217,0.554-0.286,0.729l-0.125,0.318l4.209-0.017l4.208-0.016v-0.318v-0.315H37.7c1.155,0,1.423,0.071,1.423,0.375
		c0,0.282,0.686,0.344,2.916,0.266c2.393-0.084,2.566-0.133,2.876-0.795c0.244-0.523,0.259-0.607,0.107-0.607
		c-0.355,0-0.385-0.134-0.385-1.667c0-1.721-0.028-1.649,0.692-1.682l0.513-0.024v-0.404v-0.406h0.793
		c0.593,0,0.793-0.019,0.792-0.08c0-0.044-0.046-0.265-0.1-0.492c-0.088-0.372-0.533-2.523-0.533-2.581
		c0-0.044-1.607,0.272-3.137,0.617c-1.776,0.403-2.971,0.013-3.507-1.142c-0.771-1.664,1.011-3.135,3.221-2.657
		c1.535,0.334,2.357,0.495,2.864,0.565l0.548,0.074l0.401-0.19c1.145-0.546,3.734-0.512,4.662,0.062
		c0.236,0.146,0.635,0.096,3.065-0.394c1.332-0.267,1.579-0.287,2.101-0.177c2.371,0.505,2.533,3.213,0.231,3.929
		c-0.547,0.17-1.002,0.15-2.167-0.098c-0.957-0.206-2.387-0.492-2.783-0.559c-0.194-0.034-0.188-0.039-0.302,0.555
		c-0.085,0.436-0.495,2.29-0.545,2.453c-0.029,0.098,0.035,0.111,0.621,0.126l0.654,0.018l0.017,0.444l0.018,0.444l0.529-0.02
		c0.856-0.033,0.801-0.151,0.781,1.655l-0.017,1.534l-0.207,0.061c-0.241,0.071-0.253,0.151-0.073,0.542
		c0.372,0.822,1.039,1.097,3.025,1.238c3.646,0.261,6.651,1.932,7.894,4.388c0.674,1.335,0.926,3.058,0.926,6.396
		c0.001,2.132-0.016,2.239-0.324,2.368c-0.501,0.209-0.625-0.179-0.625-1.984l-0.001-1.377h-0.22h-0.219l-0.019,1.24l-0.019,1.242
		l-0.18,0.154c-0.097,0.082-0.218,0.15-0.264,0.15c-0.05,0-0.168-0.068-0.266-0.15l-0.18-0.154l-0.02-1.242l-0.018-1.24h-0.217
		h-0.215l-0.018,2.149l-0.017,2.149l-0.152,0.163c-0.189,0.2-0.451,0.215-0.616,0.03c-0.112-0.123-0.121-0.271-0.139-2.313
		l-0.017-2.179h-0.982h-0.978v0.636c0,0.866-0.254,1.161-0.679,0.795c-0.179-0.153-0.179-0.154-0.216-1.157
		c-0.084-2.337-1.237-4.02-2.969-4.331c-0.75-0.135-1.403,0.019-3.362,0.796c-2.563,1.013-3.737,1.024-7,0.066
		c-2.013-0.592-6.162-0.774-6.5-0.288c-0.314,0.456-0.267,0.44-1.482,0.44h-1.108l-0.02-0.333l-0.018-0.333l-4.832-0.016
		l-4.831-0.016l-0.042,0.168c-0.213,0.845,0.253,4.255,0.838,6.148c0.153,0.495,0.279,0.931,0.279,0.969
		c0,0.175,0.747,1.833,1.217,2.697c0.281,0.524,0.558,1.034,0.609,1.135c0.219,0.428,1.396,2.121,1.654,2.376
		c0.056,0.058,0.171,0.203,0.255,0.325c0.535,0.769,2.748,2.98,3.49,3.485c0.122,0.084,0.379,0.284,0.57,0.448
		c1.251,1.065,4.127,2.715,5.737,3.286c3.252,1.161,4.705,1.456,7.437,1.51c2.752,0.052,4.831-0.249,7.076-1.023
		c1.396-0.479,1.612-0.561,2.313-0.869l0.729-0.319l-0.02-0.606c-0.022-0.695,0.005-0.859,0.181-1.034
		c0.348-0.347,0.695-0.013,0.695,0.668v0.483l0.258-0.146l0.255-0.148l0.014-1.247c0.014-1.361,0.075-1.573,0.458-1.573
		c0.38,0,0.438,0.153,0.473,1.263l0.03,1.021l0.235-0.162l0.235-0.158l0.017-2.56c0.019-2.414,0.026-2.567,0.14-2.693
		c0.165-0.185,0.424-0.171,0.613,0.031l0.153,0.16l0.031,2.173l0.031,2.172l0.277-0.211c0.152-0.118,0.245-0.215,0.204-0.215
		c-0.15,0-0.065-2.188,0.089-2.336c0.466-0.451,0.751-0.138,0.792,0.876l0.031,0.767l0.218-0.181l0.217-0.183l-0.016-1.08
		c-0.021-1.452,0.063-1.731,0.523-1.731c0.325,0,0.422,0.248,0.422,1.101v0.767l0.387-0.379c0.339-0.333,0.668-0.715,1.546-1.792
		c0.391-0.482,1.47-2.063,1.628-2.392c0.084-0.174,0.343-0.66,0.573-1.074c0.695-1.268,1.116-2.323,1.564-3.93
		c0.933-3.343,0.952-6.712,0.057-10.097c-0.105-0.406-0.207-0.813-0.224-0.899c-0.117-0.628-1.035-2.989-1.6-4.113
		c-0.177-0.352-0.321-0.671-0.321-0.712c0-0.1-0.911-1.782-1.452-2.684c-0.23-0.384-0.457-0.781-0.501-0.886
		c-0.114-0.256-1.99-3.177-2.664-4.143c-0.298-0.432-0.817-1.178-1.146-1.663c-1.014-1.477-3.221-4.508-3.389-4.653
		c-0.041-0.035-0.179-0.221-0.306-0.412c-0.127-0.191-0.432-0.593-0.674-0.887c-0.246-0.296-0.623-0.777-0.844-1.069
		c-0.22-0.291-0.569-0.747-0.778-1.009c-0.806-1.018-1.364-1.748-1.364-1.787c0-0.022-0.053-0.1-0.12-0.173
		c-0.067-0.071-0.415-0.541-0.771-1.042c-0.356-0.501-0.698-0.968-0.759-1.039s-0.19-0.269-0.286-0.442
		c-0.096-0.175-0.359-0.602-0.587-0.951c-0.794-1.218-1.285-2.148-2.133-4.024c-0.377-0.836-0.896-2.302-0.983-2.781
		C50.233,11.47,49.788,10.959,49.14,11.231 M61.07,56.174c0.278,0.148,0.292,0.217,0.293,1.523c0.004,1.357-0.027,1.516-0.322,1.639
		c-0.507,0.209-0.637-0.158-0.615-1.703l0.021-1.229l0.178-0.153C60.828,56.079,60.876,56.071,61.07,56.174 M59.777,58.866
		c0.204,0.259,0.207,5.115,0.002,5.334c-0.17,0.183-0.408,0.176-0.602-0.017l-0.154-0.156v-2.445c0-2.035,0.015-2.477,0.092-2.628
		C59.271,58.651,59.577,58.61,59.777,58.866 M64.007,60.056l0.181,0.153v1.309v1.311l-0.181,0.153
		c-0.097,0.083-0.218,0.153-0.264,0.153c-0.05,0-0.168-0.07-0.266-0.153l-0.18-0.153v-1.311v-1.309l0.18-0.153
		c0.098-0.084,0.218-0.153,0.266-0.153C63.791,59.901,63.91,59.972,64.007,60.056 M61.211,60.694l0.156,0.154v3.318
		c0,3.732,0.017,3.596-0.47,3.596c-0.467,0-0.45,0.135-0.45-3.584v-3.314l0.153-0.164C60.795,60.494,61.011,60.491,61.211,60.694
		 M65.327,60.575c0.436,0.168,0.436,3.938,0,4.104c-0.194,0.073-0.323,0.04-0.477-0.124l-0.154-0.163v-1.765v-1.764l0.154-0.164
		C65.002,60.537,65.132,60.503,65.327,60.575 M62.604,61.907c0.183,0.185,0.22,0.39,0.22,1.164c0,0.982-0.113,1.269-0.5,1.269
		c-0.366,0-0.419-0.155-0.419-1.269c0-0.896,0.015-1.015,0.12-1.134C62.174,61.778,62.458,61.763,62.604,61.907 M64.013,64.403
		c0.413,0.384,0.202,1.712-0.27,1.712c-0.439,0-0.662-1.277-0.289-1.675C63.636,64.244,63.831,64.231,64.013,64.403 M59.782,65.67
		c0.119,0.12,0.127,0.211,0.127,1.791c0,1.877-0.017,1.948-0.412,1.948c-0.449,0-0.477-0.111-0.477-1.945v-1.611l0.155-0.153
		C59.364,65.51,59.61,65.497,59.782,65.67 M48.311,85.064v4.373h0.95h0.95l0.005-2.14l0.003-2.138l0.193-0.152
		c0.377-0.301,0.768-0.383,1.093-0.228c0.415,0.193,0.419,0.23,0.419,2.559v2.099h0.983h0.981v-1.982
		c0-2.235-0.043-2.639-0.341-3.184c-0.574-1.052-2.017-1.358-3.067-0.651l-0.27,0.184v-1.558v-1.555h-0.95h-0.95V85.064
		 M79.686,85.064v4.373h0.949h0.951v-4.373v-4.373h-0.951h-0.949V85.064 M42.733,80.916c-3.045,0.687-4.396,4.241-2.589,6.815
		c1.302,1.855,4.612,2.423,6.533,1.118l0.299-0.204V86.79v-1.854l-1.535,0.019l-1.538,0.016v0.641c0,0.825,0.017,0.85,0.673,0.85
		h0.499v0.626v0.626l-0.206,0.086c-0.412,0.176-1.542,0.118-1.966-0.097c-1.784-0.905-1.924-3.749-0.239-4.847l0.351-0.229
		l0.887,0.002h0.887l0.487,0.269c0.805,0.441,1.018,0.39,1.5-0.368c0.327-0.518,0.327-0.5-0.033-0.818
		C45.919,80.978,44.069,80.615,42.733,80.916 M17.317,85.16v4.277h1.045h1.046v-1.775v-1.774h1.616h1.616v1.776v1.776l1.063-0.018
		l1.061-0.017l0.017-4.12c0.011-2.265,0.001-4.186-0.017-4.263c-0.034-0.143-0.041-0.143-1.063-0.125l-1.029,0.018l-0.017,1.788
		l-0.017,1.791h-1.614H19.41v-1.807v-1.808h-1.047h-1.048v4.279 M69.974,84.002l-0.018,3.123l-0.148,0.26
		c-0.228,0.396-0.413,0.474-1.167,0.487c-0.78,0.015-0.771,0.006-0.839,0.939l-0.046,0.609l0.561,0.081
		c1.479,0.209,2.494-0.119,3.161-1.022c0.56-0.762,0.562-0.777,0.587-4.413l0.022-3.186h-1.048h-1.047L69.974,84.002 M27.838,83.321
		c-0.495,0.109-1.367,0.529-1.583,0.761l-0.156,0.165l0.188,0.353c0.327,0.613,0.721,0.71,1.41,0.354
		c0.927-0.485,1.557-0.256,1.645,0.588l0.036,0.351h-0.383c-2.21,0-3.526,1.149-3.02,2.638c0.394,1.162,2.191,1.412,3.377,0.471
		l0.239-0.188l0.078,0.218c0.137,0.38,0.203,0.41,0.901,0.41h0.633l-0.019-2.265l-0.02-2.268l-0.184-0.374
		C30.458,83.462,29.264,83.003,27.838,83.321 M35.127,83.357c-0.156,0.072-0.417,0.27-0.577,0.441l-0.294,0.312l-0.043-0.266
		c-0.073-0.457-0.143-0.491-0.966-0.491h-0.719v3.041v3.042h0.951h0.951v-1.824v-1.825l0.173-0.268
		c0.255-0.393,0.563-0.523,1.136-0.476c0.544,0.046,0.558,0.03,0.621-0.677c0.022-0.261,0.057-0.583,0.076-0.713
		C36.495,83.243,35.749,83.076,35.127,83.357 M56.773,83.319c-0.498,0.111-0.899,0.289-1.365,0.605
		c-0.451,0.305-0.444,0.271-0.126,0.747c0.38,0.575,0.67,0.623,1.444,0.233c0.883-0.441,1.439-0.194,1.521,0.682l0.028,0.302h-0.379
		c-1.294,0-2.652,0.59-2.997,1.299c-0.859,1.778,1.563,3.161,3.273,1.87c0.323-0.246,0.329-0.246,0.365-0.104
		c0.103,0.405,0.252,0.485,0.934,0.485h0.628l-0.003-2.174c-0.003-1.778-0.021-2.215-0.101-2.423
		c-0.052-0.141-0.119-0.33-0.15-0.425C59.56,83.512,58.163,83.013,56.773,83.319 M64.057,83.346
		c-0.141,0.063-0.389,0.264-0.546,0.447l-0.289,0.332l-0.045-0.289c-0.064-0.428-0.178-0.484-1-0.484h-0.685v3.042v3.043h0.95h0.952
		V87.6c0-2.441,0.102-2.649,1.279-2.559c0.473,0.037,0.491,0.033,0.554-0.113c0.074-0.177,0.186-1.428,0.132-1.514
		C65.23,83.21,64.453,83.165,64.057,83.346 M74.89,83.352c-0.916,0.24-1.719,0.759-1.582,1.021c0.454,0.872,0.821,0.99,1.642,0.533
		c0.797-0.446,1.466-0.179,1.548,0.619l0.035,0.344l-0.627,0.041c-2.078,0.131-3.106,0.97-2.877,2.354
		c0.222,1.339,2.147,1.756,3.463,0.755l0.266-0.203l0.041,0.214c0.061,0.339,0.223,0.411,0.936,0.411h0.62v-2.156
		c0-2.376-0.022-2.544-0.428-3.126C77.372,83.352,76.134,83.026,74.89,83.352 M29.361,87.401c0,0.665-1.047,1.153-1.539,0.721
		c-0.5-0.442,0.221-1.045,1.3-1.084l0.239-0.009V87.401 M58.261,87.404c0,0.869-1.571,1.269-1.635,0.416
		c-0.031-0.426,0.587-0.773,1.396-0.788l0.238-0.003V87.404 M76.515,87.404c0,0.587-0.73,1.022-1.365,0.816l-0.253-0.084v-0.346
		c0-0.468,0.491-0.738,1.379-0.758l0.237-0.007L76.515,87.404 M19.093,96.061v3.644h0.792h0.792V96.06v-3.645h-0.792h-0.792V96.061
		 M66.037,92.606c-0.698,0.612-0.311,1.649,0.619,1.649c0.739,0,1.153-0.75,0.782-1.409C67.165,92.366,66.448,92.241,66.037,92.606
		 M76.767,92.588c-0.867,0.729-0.072,2.018,0.972,1.578c0.526-0.219,0.729-0.883,0.409-1.352
		C77.853,92.385,77.144,92.268,76.767,92.588 M11.855,95.157c-0.023,3.243-0.029,3.26-1.104,3.229
		c-0.631-0.018-0.636-0.013-0.71,0.72c-0.067,0.68-0.14,0.587,0.528,0.672c1.293,0.167,2.249-0.218,2.69-1.081
		c0.298-0.584,0.321-0.828,0.321-3.54v-2.551h-0.853h-0.853L11.855,95.157 M26,95.157c0,3.19-0.017,3.247-1.024,3.227
		c-0.742-0.016-0.74-0.018-0.794,0.793l-0.034,0.518l0.309,0.054c1.254,0.214,2.373-0.112,2.85-0.828
		c0.423-0.632,0.431-0.692,0.455-3.637l0.021-2.679h-0.891H26L26,95.157 M56.993,96.155v3.549h0.76h0.762l0.017-2.132l0.017-2.13
		l0.601,1.128c0.333,0.62,0.663,1.258,0.732,1.418c0.377,0.855,0.529,1.025,0.965,1.066c0.546,0.054,0.709-0.067,1.069-0.784
		c0.172-0.344,0.583-1.136,0.914-1.76l0.599-1.132l0.019,2.163l0.017,2.162h0.76h0.759v-3.549v-3.549h-0.825
		c-1.022,0-0.895-0.118-1.766,1.627c-0.361,0.728-0.7,1.407-0.752,1.51c-0.053,0.105-0.223,0.443-0.38,0.749l-0.289,0.553
		l-0.339-0.649c-0.187-0.356-0.441-0.865-0.569-1.127c-1.37-2.826-1.229-2.662-2.277-2.662h-0.789v3.549 M15.543,94.634
		c-0.556,0.141-1.329,0.604-1.329,0.798c0,0.567,0.669,0.863,1.291,0.567c0.839-0.398,1.307-0.215,1.307,0.509v0.205l-0.396,0.042
		c-1.975,0.208-2.929,1.193-2.311,2.387c0.401,0.774,1.925,0.899,2.798,0.23c0.114-0.085,0.134-0.08,0.256,0.104
		c0.131,0.195,0.142,0.196,0.722,0.219l0.587,0.017l-0.019-1.856c-0.022-2.076-0.039-2.162-0.516-2.691
		C17.474,94.656,16.406,94.417,15.543,94.634 M29.964,94.656c-1.304,0.433-1.965,1.546-1.759,2.959
		c0.187,1.276,0.983,2.041,2.278,2.187c1.073,0.122,2.685-0.532,2.44-0.993c-0.331-0.617-0.649-0.728-1.259-0.431
		c-0.786,0.386-1.425,0.228-1.756-0.429c-0.21-0.412-0.26-0.398,1.409-0.398c1.792,0,1.692,0.044,1.68-0.723
		C32.972,95.24,31.458,94.158,29.964,94.656 M35.048,94.638c-1.516,0.378-2.222,2.067-1.56,3.74c0.583,1.475,2.757,1.942,4.19,0.901
		c0.359-0.263,0.369-0.344,0.073-0.715c-0.366-0.461-0.445-0.476-1.067-0.184c-0.797,0.371-1.375,0.225-1.708-0.432
		c-0.209-0.413-0.258-0.4,1.385-0.4h1.488l0.105-0.159c0.279-0.426-0.048-1.657-0.585-2.209
		C36.885,94.681,35.846,94.437,35.048,94.638 M44.451,94.667c-0.829,0.231-1.336,0.614-1.211,0.918
		c0.25,0.601,0.645,0.706,1.359,0.373c0.686-0.319,1.155-0.142,1.222,0.466l0.033,0.286l-0.436,0.043
		c-1.313,0.134-2.249,0.606-2.426,1.222c-0.42,1.464,1.073,2.328,2.66,1.545c0.339-0.169,0.409-0.187,0.455-0.105
		c0.142,0.255,0.244,0.291,0.788,0.291h0.54l-0.021-1.853c-0.025-2.084-0.042-2.163-0.532-2.709
		C46.398,94.61,45.373,94.41,44.451,94.667 M50.264,94.688c-0.162,0.065-0.383,0.184-0.491,0.26l-0.194,0.138l-0.06-0.157
		c-0.091-0.237-0.255-0.295-0.854-0.295h-0.544v2.536v2.534h0.793h0.794v-1.773v-1.774l0.332-0.189
		c0.366-0.211,0.469-0.229,0.714-0.116c0.326,0.148,0.346,0.276,0.346,2.138v1.714h0.831h0.832l-0.023-1.884
		c-0.029-2.063-0.046-2.17-0.471-2.728C51.905,94.623,50.921,94.424,50.264,94.688 M69.281,94.664
		c-1.658,0.533-1.683,2.617-0.033,3.043c0.977,0.255,1.31,0.544,0.979,0.854c-0.216,0.198-0.66,0.174-1.119-0.066
		c-0.518-0.271-0.703-0.228-0.997,0.229c-0.335,0.525-0.294,0.596,0.525,0.88c1.724,0.605,3.207-0.085,3.215-1.489
		c0.008-0.796-0.355-1.17-1.505-1.555c-0.676-0.226-0.868-0.392-0.72-0.621c0.141-0.218,0.69-0.233,1.192-0.036
		c0.415,0.165,0.54,0.131,0.798-0.215c0.259-0.347,0.259-0.439-0.004-0.638C71.052,94.62,69.974,94.441,69.281,94.664
		 M73.505,94.626c-0.871,0.23-1.337,0.859-1.288,1.74c0.043,0.774,0.321,1.062,1.392,1.411c0.695,0.229,0.878,0.349,0.878,0.57
		c0,0.383-0.629,0.456-1.259,0.147c-0.558-0.274-0.841-0.136-1.17,0.567c-0.156,0.333,0.87,0.736,1.857,0.729
		c1.403-0.011,2.138-0.635,2.082-1.775c-0.037-0.727-0.404-1.077-1.514-1.448c-0.715-0.241-0.931-0.467-0.682-0.718
		c0.123-0.123,0.765-0.09,1.155,0.06c0.439,0.165,0.574,0.121,0.865-0.3c0.258-0.374,0.23-0.424-0.4-0.75
		C74.914,94.603,74.014,94.493,73.505,94.626 M80.445,94.672c-1.68,0.452-2.36,2.604-1.323,4.172
		c0.753,1.137,2.987,1.313,4.02,0.311c0.931-0.905,0.988-2.794,0.116-3.76C82.606,94.678,81.493,94.391,80.445,94.672
		 M86.574,94.661c-0.13,0.048-0.338,0.16-0.459,0.255c-0.221,0.168-0.348,0.17-0.348,0.003c0-0.197-0.267-0.285-0.869-0.285H84.31
		v2.536v2.532h0.825h0.823v-1.769v-1.771l0.167-0.129c0.408-0.323,0.879-0.313,1.13,0.018c0.122,0.163,0.131,0.273,0.15,1.913
		l0.019,1.738h0.788H89v-1.763c0-1.91-0.037-2.192-0.356-2.677C88.244,94.663,87.321,94.396,86.574,94.661 M37.853,94.727
		c0,0.051,0.314,0.874,0.697,1.832c0.382,0.958,0.696,1.768,0.696,1.798s0.11,0.341,0.244,0.686l0.247,0.63l0.755,0.019l0.755,0.017
		l0.831-2.109c0.776-1.968,1.098-2.825,1.098-2.923c0-0.067-1.393-0.048-1.522,0.022c-0.121,0.063-0.156,0.165-0.835,2.359
		c-0.148,0.483-0.276,0.852-0.283,0.827c-0.178-0.755-0.956-2.997-1.079-3.108C39.265,94.599,37.853,94.553,37.853,94.727
		 M65.805,97.17v2.534h0.824h0.823V97.17v-2.536h-0.825h-0.823L65.805,97.17 M76.577,97.17v2.534h0.795h0.792V97.17v-2.536h-0.792
		h-0.795V97.17 M31.256,95.879c0.135,0.095,0.323,0.437,0.323,0.593c0,0.041-0.321,0.065-0.887,0.065
		c-0.489,0-0.888-0.018-0.888-0.035C29.804,95.958,30.772,95.541,31.256,95.879 M36.317,95.918c0.127,0.137,0.269,0.432,0.269,0.56
		c0,0.033-0.368,0.06-0.857,0.06h-0.855l0.099-0.237C35.199,95.758,35.963,95.539,36.317,95.918 M81.877,96.045
		c0.637,0.695,0.4,2.314-0.366,2.521c-0.92,0.248-1.53-1.126-1.019-2.291C80.738,95.721,81.467,95.597,81.877,96.045 M16.812,98.053
		c0,0.568-0.786,0.907-1.22,0.525c-0.368-0.322,0.227-0.831,0.982-0.835l0.238-0.003V98.053 M45.838,98.04
		c0,0.592-1.134,0.981-1.301,0.448c-0.134-0.422,0.289-0.723,1.033-0.743l0.27-0.006L45.838,98.04"/>
	<path id="path2" fill="#73BBE3" d="M58.848,35.85c0.002,0.14,0.017,0.189,0.031,0.11c0.015-0.078,0.015-0.191-0.002-0.253
		C58.86,35.647,58.847,35.712,58.848,35.85 M53.333,41.188c0.097,0.015,0.255,0.015,0.35,0s0.018-0.025-0.175-0.025
		C53.316,41.163,53.237,41.173,53.333,41.188 M36.603,45.548c0,0.174,0.014,0.238,0.029,0.142c0.014-0.097,0.014-0.238,0-0.318
		C36.617,45.294,36.603,45.373,36.603,45.548 M40.055,45.942c0.114,0.014,0.299,0.014,0.413,0c0.113-0.015,0.021-0.026-0.206-0.026
		C40.034,45.916,39.943,45.929,40.055,45.942 M56.06,46.193c0.061,0.015,0.16,0.015,0.222,0c0.059-0.016,0.01-0.029-0.113-0.029
		C56.048,46.165,55.997,46.178,56.06,46.193 M57.073,46.257c0.061,0.015,0.161,0.015,0.221,0c0.063-0.018,0.012-0.029-0.109-0.029
		C57.062,46.228,57.013,46.241,57.073,46.257 M40.408,52.219c0.376,0.011,0.976,0.011,1.331,0c0.355-0.012,0.047-0.021-0.686-0.021
		C40.32,52.198,40.031,52.207,40.408,52.219 M57.5,52.57c0,0.013,0.094,0.104,0.207,0.207l0.205,0.186l-0.187-0.205
		C57.556,52.565,57.5,52.522,57.5,52.57 M37.044,52.915c0.271,0.012,0.713,0.012,0.982,0c0.27-0.013,0.05-0.021-0.492-0.021
		C36.996,52.893,36.775,52.903,37.044,52.915 M65.566,55.15c0,0.12,0.013,0.172,0.028,0.11c0.016-0.061,0.016-0.161,0-0.221
		C65.578,54.977,65.566,55.027,65.566,55.15 M59.048,56.385c0,0.42,0.009,0.582,0.021,0.363c0.014-0.219,0.014-0.563,0-0.761
		C59.054,55.789,59.048,55.968,59.048,56.385 M61.329,57.747c0,0.646,0.009,0.911,0.02,0.587c0.011-0.321,0.011-0.85,0-1.171
		C61.338,56.841,61.329,57.104,61.329,57.747 M59.053,61.52c0,1.324,0.008,1.877,0.017,1.225c0.01-0.652,0.011-1.735,0-2.41
		C59.059,59.661,59.053,60.194,59.053,61.52 M64.181,61.487c0,0.611,0.01,0.859,0.02,0.555c0.012-0.304,0.012-0.802,0-1.107
		C64.191,60.629,64.181,60.878,64.181,61.487 M61.332,64.148c0,1.762,0.01,2.479,0.017,1.601c0.011-0.88,0.011-2.32,0-3.2
		C61.342,61.669,61.332,62.392,61.332,64.148 M64.178,65.193c0,0.247,0.012,0.336,0.023,0.206c0.014-0.133,0.014-0.331-0.001-0.444
		C64.188,64.844,64.178,64.952,64.178,65.193 M59.051,67.507c0,0.855,0.01,1.206,0.019,0.777c0.011-0.427,0.011-1.126,0-1.553
		C59.057,66.304,59.051,66.654,59.051,67.507 M64.155,68.504c-0.019,0.39-0.01,0.688,0.017,0.66c0.027-0.028,0.042-0.349,0.03-0.708
		l-0.016-0.661L64.155,68.504 M61.329,70.328c0,0.523,0.009,0.729,0.02,0.457c0.011-0.272,0.011-0.699,0-0.951
		C61.338,69.584,61.329,69.806,61.329,70.328 M59.045,71.85c0,0.348,0.012,0.482,0.023,0.298c0.015-0.185,0.015-0.471,0-0.633
		C59.054,71.35,59.045,71.501,59.045,71.85"/>
	<path id="path3" fill="#A5D4ED" d="M40.026,35.882c0,0.157,0.012,0.22,0.027,0.143c0.015-0.079,0.015-0.206,0-0.286
		C40.038,35.662,40.026,35.725,40.026,35.882 M47.487,40.211c0,0.09-0.11,0.107-0.808,0.122l-0.808,0.018l-0.006,0.411l-0.006,0.412
		l0.024-0.395l0.024-0.396h0.792c0.77,0,0.997-0.064,0.828-0.235C47.504,40.126,47.487,40.154,47.487,40.211 M51.999,40.365
		l0.679,0.021l0.022,0.393l0.022,0.394l-0.005-0.413l-0.005-0.411l-0.696-0.003l-0.697-0.004L51.999,40.365 M44.756,44.265
		c0.046,0.062,0.151,0.11,0.229,0.11c0.079,0,0.16,0.037,0.177,0.08c0.02,0.048,0.035,0.034,0.037-0.032
		c0.003-0.081-0.044-0.11-0.173-0.11c-0.096,0-0.217-0.036-0.265-0.081C44.686,44.166,44.685,44.17,44.756,44.265 M37.14,45.246
		c0.287,0.012,0.758,0.012,1.045,0c0.288-0.012,0.051-0.022-0.524-0.022C37.085,45.224,36.854,45.235,37.14,45.246 M32.386,45.88
		c-2.739,0.013-4.233,0.039-4.238,0.081c-0.011,0.092-0.027,0.141-0.104,0.325c-0.039,0.093-0.086,0.278-0.107,0.411
		c-0.023,0.161,0.023,0.076,0.135-0.246l0.17-0.491h4.205c2.76,0,4.203-0.022,4.203-0.065c0-0.033-0.008-0.054-0.017-0.047
		C36.624,45.856,34.714,45.872,32.386,45.88 M41.169,45.945c0.306,0.012,0.792,0.012,1.077,0c0.287-0.013,0.036-0.021-0.558-0.021
		C41.096,45.921,40.862,45.932,41.169,45.945 M55.677,46.193c0.063,0.015,0.162,0.015,0.223,0c0.06-0.016,0.012-0.029-0.111-0.029
		C55.667,46.165,55.62,46.178,55.677,46.193 M56.504,46.258c0.095,0.015,0.253,0.015,0.351,0c0.095-0.015,0.016-0.027-0.178-0.027
		C56.485,46.231,56.405,46.244,56.504,46.258 M57.549,46.321c0.08,0.017,0.207,0.017,0.286,0c0.078-0.016,0.014-0.027-0.144-0.027
		S57.472,46.306,57.549,46.321 M27.623,47.708c-0.024,0.092-0.031,0.182-0.016,0.195c0.016,0.016,0.045-0.049,0.069-0.14
		c0.023-0.094,0.03-0.183,0.016-0.197C27.677,47.551,27.646,47.614,27.623,47.708 M26.968,51.062c0.001,0.14,0.014,0.188,0.028,0.11
		c0.016-0.08,0.016-0.192,0-0.254C26.98,50.857,26.967,50.922,26.968,51.062 M26.907,51.759c0,0.173,0.013,0.238,0.027,0.142
		c0.016-0.096,0.016-0.239,0-0.317C26.917,51.505,26.906,51.584,26.907,51.759 M55.299,51.837c0.128,0.015,0.344,0.015,0.476,0
		c0.128-0.015,0.021-0.024-0.237-0.024C55.274,51.813,55.168,51.822,55.299,51.837 M31.75,52.219l4.829,0.018l0.023,0.299
		l0.024,0.302l-0.005-0.318l-0.005-0.316l-4.848-0.001l-4.851,0L31.75,52.219 M42.464,52.215c0.079,0.017,0.193,0.015,0.254-0.001
		c0.061-0.016-0.003-0.027-0.143-0.026C42.436,52.188,42.386,52.2,42.464,52.215 M48.866,53.422c0.22,0.012,0.573,0.012,0.792,0
		c0.218-0.013,0.04-0.023-0.396-0.023C48.826,53.399,48.648,53.41,48.866,53.422 M65.578,57.115c0,0.991,0.009,1.397,0.017,0.9
		c0.012-0.496,0.012-1.309,0-1.808C65.587,55.714,65.578,56.12,65.578,57.115 M60.889,55.894l0.982,0.02l0.017,2.073l0.019,2.075
		v-2.091l-0.003-2.092l-0.999-0.003l-0.999-0.002L60.889,55.894 M62.727,55.926c-0.018,0.044-0.022,1.035-0.014,2.202l0.017,2.123
		l0.016-2.167l0.017-2.166l0.299-0.025l0.302-0.025l-0.303-0.01C62.866,55.85,62.747,55.875,62.727,55.926 M64.424,55.891l0.3,0.026
		l0.017,1.502l0.018,1.504L64.757,57.4l-0.003-1.521l-0.317-0.007l-0.316-0.006L64.424,55.891 M60.506,57.747
		c0,0.682,0.01,0.958,0.021,0.619c0.012-0.341,0.012-0.896,0-1.236C60.515,56.79,60.506,57.069,60.506,57.747 M59.496,57.431
		l-0.189,0.048l0.172,0.008c0.093,0.006,0.187-0.02,0.208-0.053c0.023-0.035,0.031-0.06,0.021-0.055
		C59.697,57.381,59.601,57.403,59.496,57.431 M60.51,64.148c0,1.796,0.008,2.529,0.018,1.633c0.009-0.897,0.009-2.367,0-3.266
		C60.516,61.621,60.51,62.354,60.51,64.148 M64.753,62.628c0,0.96,0.01,1.351,0.019,0.87c0.012-0.479,0.012-1.261,0-1.742
		C64.763,61.279,64.753,61.669,64.753,62.628 M65.577,62.628c0,0.89,0.01,1.252,0.018,0.807c0.012-0.444,0.012-1.171,0-1.614
		C65.587,61.376,65.577,61.739,65.577,62.628 M62.722,63.071c0,0.506,0.011,0.713,0.021,0.46c0.015-0.253,0.015-0.666,0-0.92
		C62.732,62.359,62.722,62.565,62.722,63.071 M61.898,63.071c0,0.437,0.011,0.616,0.022,0.397c0.013-0.219,0.013-0.575,0-0.793
		C61.907,62.457,61.898,62.636,61.898,63.071 M62.697,68.104v2.177l-0.255,0.167c-0.139,0.093-0.254,0.186-0.254,0.203
		c0,0.019,0.129-0.056,0.286-0.165l0.287-0.193v-2.184c0-1.203-0.017-2.186-0.033-2.186C62.713,65.923,62.697,66.905,62.697,68.104
		 M61.903,68.396c0,1.308,0.009,1.843,0.019,1.188c0.009-0.654,0.012-1.723,0-2.377C61.909,66.555,61.903,67.088,61.903,68.396
		 M64.74,67.395c-0.017,1.312-0.017,1.308,0.485,0.785l0.389-0.406l-0.012-0.718l-0.014-0.72l-0.036,0.737l-0.035,0.738l-0.35,0.321
		l-0.35,0.325l-0.032-1.094l-0.036-1.096L64.74,67.395 M63.872,69.318c-0.141,0.122-0.198,0.195-0.127,0.163
		c0.184-0.09,0.494-0.394,0.396-0.39C64.13,69.094,64.009,69.196,63.872,69.318 M60.491,70.502c-0.007,0.655,0.01,1.19,0.036,1.191
		c0.025,0,0.039-0.35,0.031-0.777C60.527,69.455,60.506,69.313,60.491,70.502 M61.008,71.365c-0.33,0.211-0.431,0.311-0.18,0.182
		c0.482-0.248,0.546-0.287,0.496-0.314C61.295,71.214,61.153,71.276,61.008,71.365 M59.464,72.248
		c-0.425,0.205-0.408,0.196-0.368,0.237c0.034,0.03,0.607-0.255,0.714-0.357C59.9,72.045,59.852,72.061,59.464,72.248"/>
	<path id="path4" fill="#4FACDC" d="M58.258,37.196l-0.22,0.238l0.238-0.218c0.13-0.12,0.236-0.227,0.236-0.238
		C58.513,36.93,58.46,36.977,58.258,37.196 M47.424,40.191c0,0.034-0.341,0.069-0.808,0.081l-0.809,0.019l0.84,0.013
		c0.711,0.013,0.84,0,0.84-0.08c0-0.052-0.015-0.095-0.032-0.095S47.424,40.156,47.424,40.191 M51.72,40.303
		c0.183,0.013,0.481,0.013,0.663,0c0.185-0.015,0.033-0.023-0.333-0.023C51.686,40.28,51.534,40.289,51.72,40.303 M45.157,41.126
		c0.131,0.013,0.345,0.013,0.476,0c0.13-0.014,0.023-0.026-0.238-0.026C45.135,41.1,45.027,41.112,45.157,41.126 M52.891,41.187
		c0.059,0.017,0.158,0.017,0.221,0c0.062-0.017,0.012-0.028-0.111-0.028S52.828,41.17,52.891,41.187 M44.662,42.758
		c0,0.801,0.01,1.122,0.02,0.711c0.012-0.412,0.012-1.069,0-1.458C44.669,41.621,44.662,41.958,44.662,42.758 M30.294,45.88
		c1.159,0.01,3.056,0.01,4.216,0c1.158-0.01,0.21-0.018-2.108-0.018C30.084,45.862,29.136,45.87,30.294,45.88 M41.675,45.88
		c0.272,0.013,0.7,0.013,0.952,0c0.251-0.012,0.028-0.021-0.495-0.021C41.61,45.859,41.403,45.869,41.675,45.88 M56.44,46.193
		c0.06,0.015,0.159,0.015,0.221,0c0.06-0.016,0.012-0.029-0.112-0.029C56.428,46.165,56.376,46.178,56.44,46.193 M63.492,49.001
		c0.17,0.174,0.323,0.316,0.342,0.316c0.018,0-0.109-0.143-0.28-0.316c-0.172-0.174-0.324-0.316-0.344-0.316
		C63.191,48.685,63.318,48.828,63.492,49.001 M42.655,52.279c0.08,0.016,0.193,0.016,0.255-0.001
		c0.06-0.016-0.005-0.029-0.144-0.027C42.626,52.25,42.576,52.263,42.655,52.279 M43.255,52.342c0.062,0.016,0.162,0.016,0.221,0
		c0.062-0.017,0.012-0.03-0.11-0.03C43.244,52.313,43.195,52.325,43.255,52.342 M49.057,53.483c0.114,0.016,0.286,0.014,0.38,0
		c0.096-0.015,0.002-0.026-0.207-0.026C49.02,53.458,48.942,53.471,49.057,53.483 M60.406,55.958c0.287,0.013,0.744,0.013,1.011,0
		c0.269-0.013,0.031-0.02-0.526-0.02C60.336,55.936,60.113,55.945,60.406,55.958 M62.791,55.987
		c-0.018,0.047-0.023,1.01-0.016,2.142l0.019,2.06l0.015-2.108l0.015-2.106h0.222h0.221l0.018,1.188l0.021,1.188l-0.003-1.205
		l-0.003-1.205l-0.238-0.018C62.907,55.909,62.813,55.933,62.791,55.987 M64.184,55.991c-0.017,0.046-0.023,0.595-0.013,1.22
		l0.02,1.14l0.014-1.188l0.016-1.188h0.22h0.222l0.017,1.442l0.019,1.442l0.015-1.475l0.016-1.476h-0.255
		C64.321,55.91,64.202,55.944,64.184,55.991 M60.444,57.747c0,0.682,0.009,0.958,0.02,0.619c0.013-0.341,0.013-0.896,0-1.236
		C60.452,56.79,60.444,57.069,60.444,57.747 M63.295,61.52c0,0.663,0.011,0.926,0.02,0.582c0.013-0.343,0.013-0.882,0-1.202
		C63.305,60.576,63.295,60.857,63.295,61.52 M60.444,64.181c0,1.778,0.009,2.515,0.018,1.638c0.01-0.877,0.01-2.333,0-3.233
		C60.453,61.686,60.444,62.403,60.444,64.181 M64.689,62.628c0,0.89,0.01,1.252,0.019,0.807c0.012-0.444,0.012-1.171,0-1.614
		C64.699,61.376,64.689,61.739,64.689,62.628 M62.785,63.071c0,0.471,0.012,0.662,0.021,0.428c0.011-0.236,0.011-0.621,0-0.855
		C62.797,62.407,62.785,62.601,62.785,63.071 M63.292,65.193c0,0.281,0.012,0.387,0.022,0.237c0.016-0.149,0.016-0.377-0.001-0.508
		C63.3,64.793,63.292,64.915,63.292,65.193 M62.789,68.109c0,1.188,0.01,1.662,0.018,1.058c0.011-0.601,0.011-1.572,0-2.154
		C62.799,66.43,62.789,66.923,62.789,68.109 M64.688,67.476c-0.002,0.595,0.009,0.844,0.02,0.558c0.014-0.284,0.014-0.77,0-1.075
		C64.698,66.65,64.688,66.885,64.688,67.476 M63.295,68.744c0,0.595,0.011,0.843,0.02,0.56c0.013-0.288,0.013-0.771,0-1.075
		C63.304,67.919,63.295,68.151,63.295,68.744 M60.444,70.551c0,0.645,0.009,0.908,0.02,0.587c0.013-0.322,0.013-0.851,0-1.172
		C60.452,69.642,60.444,69.905,60.444,70.551"/>
</g>
</svg>
