<svg xmlns="http://www.w3.org/2000/svg" width="400" height="104" fill="none">
  <g stroke="#fff" stroke-linecap="round" stroke-linejoin="round" stroke-width="4" clip-path="url(#a)">
    <path
      d="M33.333 18.667 16.667 27v20.833l16.666 8.334L50 47.833V27l-16.667-8.333ZM50 47.833l16.667 8.334 16.666-8.334V27l-16.666-8.333L50 27M33.333 56.167V77L50 85.333 66.667 77V56.167" />
  </g>
  <path fill="#fff"
    d="M178.194 14.12v2.84h-4.2V39h-3.08c-.773-1.573-1.733-2.947-2.88-4.12a20.856 20.856 0 0 0-3.68-3.08l1-2.64c1.014.587 2.067 1.387 3.16 2.4 1.094 1.013 1.934 2.04 2.52 3.08-.026-.4-.053-.773-.08-1.12 0-.347-.013-.707-.04-1.08V16.96h-29.24v-2.84h36.52Zm-21.08 21.24c-1.813 0-3.546-.427-5.2-1.28-1.653-.853-3.213-2.293-4.68-4.32-1.44-2.053-2.773-4.867-4-8.44l2.92-.96c.96 2.773 1.96 5.053 3 6.84 1.067 1.76 2.254 3.053 3.56 3.88 1.307.827 2.8 1.24 4.48 1.24 1.467 0 2.64-.227 3.52-.68.907-.48 1.56-1.12 1.96-1.92.4-.827.6-1.733.6-2.72 0-1.547-.426-2.8-1.28-3.76-.826-.96-1.866-1.44-3.12-1.44-.88 0-1.546.2-2 .6-.453.373-.68.947-.68 1.72 0 .187.027.44.08.76.054.32.134.613.24.88l-3.04.6a18.006 18.006 0 0 1-.44-1.52c-.08-.48-.12-.933-.12-1.36 0-.987.267-1.813.8-2.48a5.014 5.014 0 0 1 2.12-1.48c.88-.347 1.8-.52 2.76-.52 1.574 0 2.934.36 4.08 1.08 1.147.693 2.04 1.653 2.68 2.88.64 1.227.96 2.653.96 4.28a8.47 8.47 0 0 1-1 4.04c-.666 1.227-1.68 2.213-3.04 2.96-1.36.747-3.08 1.12-5.16 1.12Zm-1.28-14.96c-.133-.853-.533-1.6-1.2-2.24-.64-.667-1.586-1.133-2.84-1.4l.96-1.8 1.8.48c1.52.587 2.614 1.253 3.28 2 .667.747 1.054 1.693 1.16 2.84l-3.16.12Zm52.123-6.28v2.84h-4.2V39h-3.08V24.88l.92 2.52c-.826-1.093-1.546-1.933-2.16-2.52-.586-.587-1.16-.88-1.72-.88-.373 0-.72.107-1.04.32-.32.213-.68.627-1.08 1.24-.4.587-.933 1.493-1.6 2.72-.72 1.307-1.373 2.387-1.96 3.24-.586.827-1.213 1.44-1.88 1.84-.64.373-1.426.56-2.36.56-.72 0-1.413-.147-2.08-.44-.64-.293-1.293-.773-1.96-1.44-.64-.693-1.333-1.627-2.08-2.8l2.44-1.48c.72 1.28 1.32 2.12 1.8 2.52.48.4 1 .6 1.56.6.454 0 .88-.133 1.28-.4.427-.293.88-.787 1.36-1.48.507-.693 1.08-1.64 1.72-2.84l.92-1.32c.694-1.44 1.36-2.427 2-2.96.64-.56 1.347-.84 2.12-.84.88 0 1.667.253 2.36.76.72.48 1.547 1.227 2.48 2.24l-.8.04a14.428 14.428 0 0 1-.2-1.72 36.22 36.22 0 0 1-.04-1.68v-3.72h-20.8v-2.84h28.08Zm-16.84 14.04c-.266-1.813-.546-3.253-.84-4.32-.266-1.067-.746-1.893-1.44-2.48-.666-.613-1.573-1.067-2.72-1.36-1.146-.32-2.586-.587-4.32-.8l.6-3.04 2.16.8c1.52.24 2.787.547 3.8.92 1.014.373 1.827.867 2.44 1.48.64.587 1.12 1.32 1.44 2.2.32.88.534 1.947.64 3.2l-1.76 3.4Zm44.206-14.04v2.84h-4.2V39h-3.08v-5.4l.72 2.12a53.127 53.127 0 0 0-2.84-3.92c-.933-1.2-1.933-2.173-3-2.92-1.04-.747-2.187-1.12-3.44-1.12-.987 0-1.827.253-2.52.76-.667.507-1 1.267-1 2.28 0 .88.32 1.627.96 2.24.64.587 1.587 1.093 2.84 1.52l-1 3.08c-1.44-.507-2.613-1.12-3.52-1.84-.88-.72-1.533-1.507-1.96-2.36-.4-.88-.6-1.8-.6-2.76 0-1.28.307-2.347.92-3.2a6.007 6.007 0 0 1 2.4-1.92c.987-.453 1.973-.68 2.96-.68 1.6 0 3 .293 4.2.88a10.391 10.391 0 0 1 3.2 2.36 19.798 19.798 0 0 1 2.52 3.32l-.68.12a43.687 43.687 0 0 1-.16-3.8v-10.8h-18.4v-2.84h25.68Zm-13.32 11.96c0 .16-.013.32-.04.48 0 .16-.013.32-.04.48l-3.04-.92c-.053-1.547-.32-2.787-.8-3.72-.48-.933-1.24-1.64-2.28-2.12-1.04-.507-2.453-.853-4.24-1.04l.52-2.88 1.84.52c1.28.107 2.413.373 3.4.8 1.013.4 1.867.973 2.56 1.72.693.747 1.213 1.68 1.56 2.8.373 1.093.56 2.387.56 3.88ZM264.27 39h-4.193l9.421-26.182h4.564L283.484 39h-4.193l-7.402-21.426h-.205L264.27 39Zm.703-10.253h13.602v3.324h-13.602v-3.324Zm38.861-9.051c-.136-1.21-.699-2.148-1.688-2.813-.988-.673-2.232-1.01-3.732-1.01-1.074 0-2.003.171-2.787.512-.784.332-1.394.793-1.829 1.38a3.26 3.26 0 0 0-.639 1.982c0 .622.145 1.16.435 1.611a3.9 3.9 0 0 0 1.163 1.138c.486.298 1.006.55 1.56.754.554.196 1.087.358 1.598.486l2.557.665c.835.204 1.692.481 2.569.83.878.35 1.692.81 2.442 1.381a6.61 6.61 0 0 1 1.815 2.122c.469.844.704 1.854.704 3.03 0 1.483-.384 2.8-1.151 3.95-.758 1.151-1.862 2.059-3.311 2.724-1.44.664-3.183.997-5.229.997-1.96 0-3.656-.311-5.088-.934-1.432-.622-2.552-1.504-3.362-2.646-.81-1.15-1.257-2.514-1.342-4.09h3.963c.076.945.383 1.734.92 2.364.546.622 1.24 1.087 2.084 1.394.852.298 1.785.447 2.8.447 1.116 0 2.109-.175 2.978-.524.878-.358 1.569-.852 2.071-1.483.503-.64.755-1.385.755-2.237 0-.776-.222-1.41-.665-1.905-.435-.494-1.027-.903-1.777-1.227a17.377 17.377 0 0 0-2.519-.857l-3.093-.843c-2.097-.572-3.759-1.411-4.986-2.519-1.219-1.108-1.828-2.574-1.828-4.398 0-1.508.409-2.825 1.227-3.95.818-1.125 1.926-1.999 3.324-2.62 1.398-.631 2.974-.947 4.73-.947 1.773 0 3.337.311 4.692.933 1.363.623 2.437 1.48 3.221 2.57.784 1.083 1.194 2.327 1.228 3.733h-3.81Zm25.668 0c-.136-1.21-.699-2.148-1.688-2.813-.988-.673-2.233-1.01-3.733-1.01-1.073 0-2.002.171-2.786.512-.785.332-1.394.793-1.829 1.38a3.26 3.26 0 0 0-.639 1.982c0 .622.145 1.16.435 1.611a3.9 3.9 0 0 0 1.163 1.138c.486.298 1.006.55 1.56.754.554.196 1.087.358 1.598.486l2.557.665a19.51 19.51 0 0 1 2.569.83c.878.35 1.692.81 2.442 1.381a6.61 6.61 0 0 1 1.815 2.122c.469.844.704 1.854.704 3.03 0 1.483-.384 2.8-1.151 3.95-.759 1.151-1.862 2.059-3.311 2.724-1.44.664-3.183.997-5.229.997-1.96 0-3.656-.311-5.088-.934-1.432-.622-2.552-1.504-3.362-2.646-.81-1.15-1.257-2.514-1.342-4.09h3.963c.076.945.383 1.734.92 2.364.546.622 1.24 1.087 2.084 1.394.852.298 1.785.447 2.8.447 1.116 0 2.109-.175 2.978-.524.878-.358 1.569-.852 2.071-1.483.503-.64.755-1.385.755-2.237 0-.776-.222-1.41-.665-1.905-.435-.494-1.027-.903-1.777-1.227a17.377 17.377 0 0 0-2.519-.857l-3.093-.843c-2.097-.572-3.759-1.411-4.986-2.519-1.219-1.108-1.828-2.574-1.828-4.398 0-1.508.409-2.825 1.227-3.95.818-1.125 1.926-1.999 3.324-2.62 1.398-.631 2.974-.947 4.73-.947 1.773 0 3.337.311 4.692.933 1.363.623 2.437 1.48 3.221 2.57.784 1.083 1.194 2.327 1.228 3.733h-3.81ZM342.891 39h-4.193l9.421-26.182h4.564L362.105 39h-4.193l-7.402-21.426h-.204L342.891 39Zm.703-10.253h13.602v3.324h-13.602v-3.324Zm24.792-15.929h4.794l8.335 20.352h.307l8.335-20.352h4.795V39h-3.759V20.054h-.243l-7.721 18.908h-3.12l-7.721-18.92h-.243V39h-3.759V12.818ZM146.428 87h-4.262V72.454h4.517c1.388 0 2.574.29 3.558.867.99.578 1.748 1.406 2.273 2.486.526 1.08.789 2.374.789 3.885 0 1.524-.27 2.834-.81 3.927-.535 1.09-1.316 1.925-2.344 2.507-1.023.583-2.263.874-3.721.874Zm-2.934-1.193h2.855c1.25 0 2.297-.246 3.14-.739a4.62 4.62 0 0 0 1.896-2.11c.421-.913.632-2.002.632-3.266-.005-1.255-.213-2.334-.625-3.239-.407-.904-1.013-1.598-1.818-2.08-.8-.484-1.79-.725-2.969-.725h-3.111v12.159Zm16.856-13.353V87h-1.328V72.454h1.328Zm14.265 3.637c-.081-.81-.438-1.454-1.073-1.932-.634-.478-1.432-.717-2.393-.717-.677 0-1.274.116-1.79.348-.511.232-.914.554-1.207.966a2.346 2.346 0 0 0-.434 1.392c0 .383.083.72.249 1.008.166.29.388.538.668.746.284.204.596.379.937.526.346.146.694.27 1.044.369l1.534.44c.464.128.928.291 1.392.49.464.2.888.45 1.272.753.388.298.698.665.93 1.101.237.43.355.95.355 1.555 0 .777-.201 1.475-.604 2.096-.402.62-.98 1.112-1.733 1.477-.752.36-1.654.54-2.706.54-.989 0-1.848-.164-2.578-.49-.729-.332-1.302-.789-1.718-1.371-.417-.583-.651-1.257-.704-2.024h1.364c.047.573.237 1.058.568 1.456.332.397.763.7 1.293.909.53.203 1.122.305 1.775.305.725 0 1.369-.12 1.932-.362.568-.246 1.014-.587 1.336-1.023.326-.44.49-.952.49-1.534 0-.492-.128-.904-.384-1.236-.256-.336-.613-.618-1.072-.845a9.507 9.507 0 0 0-1.584-.604l-1.74-.511c-1.141-.34-2.027-.812-2.657-1.413-.629-.602-.944-1.369-.944-2.302 0-.78.208-1.467.625-2.06.421-.596.989-1.06 1.704-1.391.72-.336 1.527-.504 2.422-.504.905 0 1.705.165 2.401.497.696.331 1.248.788 1.655 1.37.412.578.632 1.236.66 1.975h-1.285Zm6.299-2.443v-1.194h10.547v1.194h-4.609V87h-1.328V73.648h-4.61ZM196.951 87V72.454h4.695c1.032 0 1.894.188 2.585.562.696.369 1.219.883 1.57 1.54.355.654.532 1.405.532 2.252 0 .848-.177 1.596-.532 2.245-.351.648-.871 1.155-1.563 1.52-.691.364-1.548.546-2.571.546h-3.998v-1.214h3.963c.757 0 1.387-.126 1.889-.377a2.48 2.48 0 0 0 1.129-1.072c.251-.464.377-1.013.377-1.648 0-.634-.126-1.188-.377-1.662a2.575 2.575 0 0 0-1.136-1.108c-.502-.26-1.137-.39-1.904-.39h-3.331V87h-1.328Zm6.414-6.563L206.944 87h-1.534l-3.544-6.563h1.499Zm10.032-7.983V87h-1.328V72.454h1.328ZM231.156 77h-1.335c-.1-.497-.28-.956-.54-1.378a4.272 4.272 0 0 0-.966-1.115 4.403 4.403 0 0 0-1.321-.739 4.732 4.732 0 0 0-1.598-.262c-.919 0-1.757.239-2.514.717-.753.478-1.357 1.181-1.811 2.11-.45.923-.675 2.054-.675 3.394 0 1.35.225 2.486.675 3.41.454.923 1.058 1.623 1.811 2.102.757.473 1.595.71 2.514.71.573 0 1.106-.088 1.598-.263a4.49 4.49 0 0 0 1.321-.732c.388-.317.71-.688.966-1.114.26-.427.44-.888.54-1.386h1.335a5.818 5.818 0 0 1-.668 1.868 5.558 5.558 0 0 1-1.236 1.506 5.56 5.56 0 0 1-1.718 1.009 6.088 6.088 0 0 1-2.138.362c-1.222 0-2.306-.305-3.253-.916-.947-.616-1.69-1.482-2.23-2.6-.535-1.117-.803-2.436-.803-3.956s.268-2.838.803-3.956c.54-1.117 1.283-1.981 2.23-2.592.947-.616 2.031-.923 3.253-.923.776 0 1.489.12 2.138.362a5.38 5.38 0 0 1 1.718 1.008c.502.431.914.933 1.236 1.506a5.74 5.74 0 0 1 .668 1.868Zm4.739-3.352v-1.194h10.547v1.194h-4.61V87h-1.328V73.648h-4.609ZM264.318 87h-4.261V72.454h4.517c1.387 0 2.573.29 3.558.867.99.578 1.747 1.406 2.273 2.486.525 1.08.788 2.374.788 3.885 0 1.524-.27 2.834-.809 3.927-.536 1.09-1.317 1.925-2.344 2.507-1.023.583-2.263.874-3.722.874Zm-2.933-1.193h2.855c1.25 0 2.296-.246 3.139-.739a4.621 4.621 0 0 0 1.897-2.11c.421-.913.632-2.002.632-3.266-.005-1.255-.213-2.334-.625-3.239-.408-.904-1.014-1.598-1.819-2.08-.8-.484-1.789-.725-2.968-.725h-3.111v12.159ZM276.25 87h-1.392l5.291-14.546h1.421L286.861 87h-1.392l-4.56-12.82h-.099L276.25 87Zm1.001-5.575h7.216v1.193h-7.216v-1.193Zm22.5-5.334c-.08-.81-.438-1.454-1.072-1.932-.634-.478-1.432-.717-2.393-.717-.678 0-1.274.116-1.79.348a2.931 2.931 0 0 0-1.208.966 2.352 2.352 0 0 0-.433 1.392c0 .383.083.72.249 1.008.165.29.388.538.667.746.284.204.597.379.938.526a8.8 8.8 0 0 0 1.044.369l1.534.44c.464.128.928.291 1.392.49.464.2.888.45 1.271.753.389.298.699.665.931 1.101.236.43.355.95.355 1.555 0 .777-.201 1.475-.604 2.096-.402.62-.98 1.112-1.733 1.477-.753.36-1.655.54-2.706.54-.989 0-1.849-.164-2.578-.49-.729-.332-1.302-.789-1.719-1.371-.416-.583-.651-1.257-.703-2.024h1.364c.047.573.237 1.058.568 1.456.331.397.762.7 1.293.909.53.203 1.122.305 1.775.305.725 0 1.369-.12 1.932-.362.568-.246 1.013-.587 1.335-1.023.327-.44.49-.952.49-1.534 0-.492-.128-.904-.383-1.236-.256-.336-.613-.618-1.073-.845a9.46 9.46 0 0 0-1.583-.604l-1.741-.511c-1.141-.34-2.026-.812-2.656-1.413-.63-.602-.944-1.369-.944-2.302 0-.78.208-1.467.625-2.06.421-.596.989-1.06 1.704-1.391.72-.336 1.527-.504 2.422-.504.904 0 1.705.165 2.401.497.696.331 1.247.788 1.654 1.37.412.578.633 1.236.661 1.975h-1.286ZM306.932 87V72.454h1.328v6.67h8.253v-6.67h1.328V87h-1.328v-6.683h-8.253V87h-1.328Zm17.265 0V72.454h4.908c.947 0 1.735.166 2.365.498.635.331 1.11.783 1.428 1.356.317.573.476 1.224.476 1.953 0 .606-.102 1.125-.306 1.556a2.75 2.75 0 0 1-.831 1.044c-.35.265-.741.457-1.172.575v.114c.469.033.924.199 1.364.497.44.293.803.705 1.087 1.236.284.53.426 1.164.426 1.903 0 .734-.164 1.39-.49 1.967-.327.573-.829 1.025-1.506 1.357-.672.327-1.529.49-2.571.49h-5.178Zm1.329-1.193h3.849c1.122 0 1.951-.249 2.486-.746.54-.497.809-1.122.809-1.875 0-.554-.134-1.056-.404-1.506a2.858 2.858 0 0 0-1.13-1.08c-.483-.264-1.051-.397-1.704-.397h-3.906v5.604Zm0-6.783h3.7c.573 0 1.075-.118 1.506-.355.43-.237.767-.563 1.008-.98a2.79 2.79 0 0 0 .362-1.428c0-.771-.251-1.399-.753-1.882-.501-.487-1.25-.731-2.244-.731h-3.579v5.376Zm26.045.703c0 1.515-.27 2.834-.809 3.956-.54 1.118-1.283 1.984-2.23 2.6-.943.61-2.027.916-3.253.916-1.227 0-2.313-.305-3.26-.916-.942-.616-1.683-1.482-2.223-2.6-.535-1.122-.803-2.44-.803-3.956 0-1.515.268-2.831.803-3.949.54-1.122 1.283-1.988 2.23-2.599.947-.616 2.031-.923 3.253-.923 1.226 0 2.31.307 3.253.923.947.61 1.69 1.477 2.23 2.6.539 1.117.809 2.433.809 3.948Zm-1.292 0c0-1.302-.218-2.417-.654-3.345-.435-.933-1.029-1.645-1.782-2.138-.753-.492-1.608-.738-2.564-.738-.952 0-1.804.246-2.557.738-.753.493-1.349 1.203-1.79 2.131-.435.928-.653 2.046-.653 3.352 0 1.302.218 2.417.653 3.345.436.928 1.03 1.641 1.783 2.138.753.493 1.607.739 2.564.739.956 0 1.811-.246 2.564-.739.757-.492 1.354-1.202 1.789-2.13.436-.933.651-2.05.647-3.353ZM356.621 87h-1.392l5.291-14.546h1.421L367.232 87h-1.392l-4.56-12.82h-.099L356.621 87Zm1.002-5.575h7.215v1.193h-7.215v-1.193ZM372.225 87V72.454h4.694c1.033 0 1.894.188 2.586.562.696.369 1.219.883 1.569 1.54.355.654.533 1.405.533 2.252 0 .848-.178 1.596-.533 2.245-.35.648-.871 1.155-1.562 1.52-.692.364-1.549.546-2.571.546h-3.999v-1.214h3.963c.758 0 1.387-.126 1.889-.377.507-.25.883-.608 1.13-1.072.251-.464.376-1.013.376-1.648 0-.634-.125-1.188-.376-1.662a2.573 2.573 0 0 0-1.137-1.108c-.502-.26-1.136-.39-1.903-.39h-3.331V87h-1.328Zm6.413-6.563 3.58 6.563h-1.534l-3.544-6.563h1.498ZM391.603 87h-4.261V72.454h4.517c1.387 0 2.573.29 3.558.867.99.578 1.747 1.406 2.273 2.486.526 1.08.788 2.374.788 3.885 0 1.524-.27 2.834-.809 3.927-.535 1.09-1.317 1.925-2.344 2.507-1.023.583-2.263.874-3.722.874Zm-2.933-1.193h2.855c1.25 0 2.297-.246 3.139-.739a4.621 4.621 0 0 0 1.897-2.11c.421-.913.632-2.002.632-3.266-.005-1.255-.213-2.334-.625-3.239-.407-.904-1.013-1.598-1.818-2.08-.801-.484-1.79-.725-2.969-.725h-3.111v12.159Z" />
  <defs>
    <clipPath id="a">
      <path fill="#fff" d="M0 2h100v100H0z" />
    </clipPath>
  </defs>
</svg>